<?xml version="1.0" encoding="utf-8"?>
<svg xmlns="http://www.w3.org/2000/svg"
	xmlns:xlink="http://www.w3.org/1999/xlink"
	width="18px" height="18px" viewBox="0 0 18 18">
<path fillRule="evenodd" d="M 8.86 13.37C 8.86 13.37 3.48 17.32 3.48 17.32 3.48 17.32 5.69 11.07 5.69 11.07 5.69 11.07 0.56 7.02 0.56 7.02 0.56 7.02 6.9 7.02 6.9 7.02 6.9 7.02 8.65 0.73 8.65 0.73 8.65 0.73 10.82 7.02 10.82 7.02 10.82 7.02 17.17 7.02 17.17 7.02 17.17 7.02 12.04 11.07 12.04 11.07 12.04 11.07 14.33 17.28 14.33 17.28 14.33 17.28 8.86 13.37 8.86 13.37Z" /></svg>